<svg width="56" height="56" viewBox="0 0 56 56" fill="none" xmlns="http://www.w3.org/2000/svg">
<path d="M26.4217 13.4875C26.1675 15.1836 25.9595 16.8885 25.6489 18.5745C24.1945 26.4539 22.0828 34.1223 18.2725 41.2199C16.7978 43.9658 15.0805 46.5486 12.5283 48.418C11.7786 48.9669 10.9322 49.4328 10.0627 49.7502C7.50042 50.6863 5.47108 49.8579 4.19715 47.4236C3.17453 45.4683 2.8481 43.3179 2.75711 41.1617C2.28913 30.1607 5.62274 20.4308 12.6063 11.9864C14.3121 9.92338 16.379 8.25053 18.7853 7.0392C23.7684 4.53355 28.4886 6.13944 30.9339 11.1871C32.2584 13.9199 32.7394 16.8492 32.8693 19.8542C32.8925 20.3755 32.8722 20.8967 32.8722 21.4194C32.9343 21.4397 32.9965 21.4601 33.0586 21.4805C33.2218 21.2927 33.3893 21.1092 33.5468 20.9171C35.2887 18.8016 37.2689 16.989 39.8211 15.9043C44.9067 13.7423 49.9967 16.8783 51.8816 20.9855C53.2278 23.9192 53.4661 27.0261 53.1758 30.1738C52.5995 36.4066 50.6524 42.2027 47.4459 47.5619C46.9433 48.402 46.3078 49.1605 45.7344 49.9569C45.6621 49.9293 45.5914 49.903 45.5191 49.8754V21.4863C45.4729 21.4849 45.4282 21.4834 45.3819 21.482C45.109 23.1228 44.8807 24.7738 44.5543 26.4044C43.3901 32.2034 41.7508 37.848 38.9343 43.0806C37.7571 45.2674 36.3792 47.3159 34.3412 48.8038C33.84 49.1707 33.2853 49.4939 32.7119 49.7254C30.4096 50.6485 28.6518 49.9336 27.6147 47.6697C26.8752 46.0536 26.6831 44.3123 26.5863 42.5652C26.5185 41.3553 26.5473 40.1396 26.5473 38.9268C26.5445 30.9207 26.5459 22.9131 26.5459 14.907C26.5459 14.4469 26.5459 13.9869 26.5459 13.5283C26.504 13.5151 26.4621 13.5035 26.4217 13.4904V13.4875Z" fill="#6332FF"/>
</svg>
